<?xml version="1.0" encoding="UTF-8" standalone="no"?>
<svg
   width="64"
   height="64"
   viewBox="0 0 64 64"
   version="1.1"
   id="svg2"
   sodipodi:docname="favicon.svg"
   xml:space="preserve"
   inkscape:version="1.4 (e7c3feb100, 2024-10-09)"
   xmlns:inkscape="http://www.inkscape.org/namespaces/inkscape"
   xmlns:sodipodi="http://sodipodi.sourceforge.net/DTD/sodipodi-0.dtd"
   xmlns="http://www.w3.org/2000/svg"
   xmlns:svg="http://www.w3.org/2000/svg"><defs
     id="defs2" /><sodipodi:namedview
     id="namedview2"
     pagecolor="#ffffff"
     bordercolor="#000000"
     borderopacity="0.25"
     inkscape:showpageshadow="2"
     inkscape:pageopacity="0.0"
     inkscape:pagecheckerboard="0"
     inkscape:deskcolor="#d1d1d1"
     inkscape:zoom="9.3249707"
     inkscape:cx="38.230683"
     inkscape:cy="28.150223"
     inkscape:window-width="1278"
     inkscape:window-height="1023"
     inkscape:window-x="0"
     inkscape:window-y="0"
     inkscape:window-maximized="0"
     inkscape:current-layer="svg2" /><rect
     x="0"
     y="0"
     width="64"
     height="64"
     rx="10"
     fill="#2b2b2b"
     id="rect1" /><g
     transform="matrix(0.98009485,0,0,1.1964871,0.58334513,-7.2134367)"
     id="g2"
     style="stroke:#666666"><g
       id="g3"
       transform="matrix(1.0027126,0,0,0.88864615,3.8540039,4.3371297)"
       style="stroke:#666666"><path
         d="M 8.880742,11.550781 2.9817709,32 8.880742,52.449219"
         stroke="#ff5252"
         stroke-width="4.25375"
         fill="none"
         id="path1"
         style="stroke:#666666" /><path
         d="M 47.330923,11.568743 53.261141,32 47.330923,52.431257"
         stroke="#ff5252"
         stroke-width="4.26309"
         fill="none"
         id="path2"
         style="stroke:#666666" /></g></g><path
     d="m 11.726038,32.656946 q 0,-2.685867 0.823088,-4.721927 0.823088,-2.036061 2.166022,-3.404987 1.342933,-1.360261 3.07575,-2.053387 1.732818,-0.693128 3.552275,-0.693128 4.505325,0 6.844629,2.659875 2.339303,2.668539 2.339303,7.780349 0,0.519846 -0.01733,1.083011 -0.02599,0.563166 -0.06931,0.90973 H 17.227733 q 0,1.992739 1.646176,3.145062 1.646176,1.14366 4.245402,1.14366 1.602856,0 3.058423,-0.346564 1.446902,-0.346563 2.443272,-0.693127 l 0.736447,4.548646 q -1.386253,0.476525 -2.945789,0.797097 -1.559536,0.329235 -3.508954,0.329235 -2.599226,0 -4.652615,-0.675799 -2.062053,-0.667135 -3.508955,-1.984075 -1.455566,-1.325605 -2.235335,-3.275025 -0.779767,-1.94942 -0.779767,-4.548646 m 13.645936,-2.1227 q 0,-0.823088 -0.216602,-1.585528 -0.216602,-0.753776 -0.693127,-1.360263 -0.476525,-0.606485 -1.212973,-0.979042 -0.736447,-0.363891 -1.819457,-0.363891 -1.039691,0 -1.793467,0.346563 -0.762439,0.346564 -1.264955,0.95305 -0.493854,0.606485 -0.771105,1.386253 -0.285915,0.77977 -0.372555,1.602856 z m 26.901988,11.263311 q -0.129961,0.08664 -0.589158,0.303244 -0.450533,0.216602 -1.18698,0.459196 -0.736448,0.23393 -1.793466,0.407211 -1.065682,0.173282 -2.408616,0.173282 -3.682236,0 -5.371734,-2.192014 -1.689496,-2.18335 -1.689496,-6.385432 V 17.278193 H 33.602856 V 12.85951 h 10.960069 v 22.093419 q 0,2.079381 0.823089,2.815829 0.823088,0.736447 2.07938,0.736447 1.602856,0 2.685867,-0.433204 1.08301,-0.433205 1.429574,-0.563166 z"
     id="path1-1"
     style="fill:#ff5252;stroke-width:0.866409" /></svg>
