<?xml version="1.0" encoding="UTF-8" standalone="no"?>
<svg
   width="256"
   height="256"
   viewBox="0 0 256 256"
   version="1.1"
   id="svg5"
   xml:space="preserve"
   sodipodi:docname="logo.svg"
   inkscape:version="1.4 (e7c3feb100, 2024-10-09)"
   xmlns:inkscape="http://www.inkscape.org/namespaces/inkscape"
   xmlns:sodipodi="http://sodipodi.sourceforge.net/DTD/sodipodi-0.dtd"
   xmlns="http://www.w3.org/2000/svg"
   xmlns:svg="http://www.w3.org/2000/svg"><sodipodi:namedview
     id="namedview1"
     pagecolor="#ffffff"
     bordercolor="#000000"
     borderopacity="0.25"
     inkscape:showpageshadow="2"
     inkscape:pageopacity="0.0"
     inkscape:pagecheckerboard="0"
     inkscape:deskcolor="#d1d1d1"
     inkscape:zoom="3.296875"
     inkscape:cx="128"
     inkscape:cy="101.61137"
     inkscape:window-width="1920"
     inkscape:window-height="1052"
     inkscape:window-x="0"
     inkscape:window-y="0"
     inkscape:window-maximized="1"
     inkscape:current-layer="g2" /><defs
     id="defs4"><linearGradient
       id="bgGradient"
       x1="18"
       y1="18"
       x2="238"
       y2="238"
       gradientUnits="userSpaceOnUse"
       gradientTransform="matrix(1.1363636,0,0,1.1363636,-17.454544,-17.454544)"><stop
         offset="0"
         stop-color="#3b3b3b"
         id="stop1" /><stop
         offset="1"
         stop-color="#2b2b2b"
         id="stop2" /></linearGradient><filter
       id="glow"
       x="-0.089563958"
       y="-0.082460006"
       width="1.1791279"
       height="1.16492"><feGaussianBlur
         stdDeviation="4"
         result="blur"
         id="feGaussianBlur4"
         in="SourceGraphic" /><feComposite
         in="SourceGraphic"
         in2="blur"
         operator="over"
         id="feComposite4"
         result="composite-0" /></filter></defs><rect
     x="3"
     y="3"
     width="250"
     height="250"
     fill="url(#bgGradient)"
     id="rect4"
     style="fill:url(#bgGradient);stroke-width:1.13636"
     ry="50" /><g
     id="g2"
     transform="translate(0.4430186,-1.5165883)"><g
       id="g1"
       transform="matrix(1.5900346,0,0,1.5900346,-121.12651,-66.626074)"><g
         opacity="0.25"
         fill="#ffffff"
         filter="url(#glow)"
         id="g5"
         transform="matrix(0.55415879,0,0,0.56134669,112.16444,51.505106)"><path
           d="m 80,60 -30,68 30,68"
           stroke="#ffffff"
           stroke-width="8"
           fill="none"
           id="path4" /><path
           d="m 176,60 30,68 -30,68"
           stroke="#ffffff"
           stroke-width="8"
           fill="none"
           id="path5" /></g><path
         d="m 152.28246,124.58038 q 0,-4.06854 1.24681,-7.15275 1.24681,-3.08421 3.28107,-5.15785 2.03427,-2.06051 4.65913,-3.11046 2.62486,-1.04994 5.38096,-1.04994 6.82464,0 10.3682,4.02916 3.54356,4.04228 3.54356,11.78562 0,0.78746 -0.0263,1.64054 -0.0394,0.85308 -0.10499,1.37805 h -20.01456 q 0,3.01859 2.49362,4.76412 2.49362,1.73241 6.43091,1.73241 2.42799,0 4.63287,-0.52497 2.19176,-0.52497 3.70106,-1.04995 l 1.11556,6.89026 q -2.09989,0.72184 -4.46226,1.20744 -2.36237,0.49872 -5.31534,0.49872 -3.93729,0 -7.04775,-1.02369 -3.12359,-1.01058 -5.31534,-3.00547 -2.20489,-2.00802 -3.38607,-4.96098 -1.18114,-2.95297 -1.18114,-6.89026 m 20.67077,-3.21546 q 0,-1.2468 -0.3281,-2.40174 -0.32811,-1.14182 -1.04995,-2.06052 -0.72183,-0.9187 -1.8374,-1.48304 -1.11557,-0.55123 -2.7561,-0.55123 -1.57492,0 -2.71673,0.52498 -1.15494,0.52497 -1.91615,1.44367 -0.74809,0.9187 -1.16806,2.09989 -0.43311,1.18119 -0.56435,2.42799 z m 40.75096,17.06159 q -0.19687,0.13125 -0.89245,0.45936 -0.68247,0.3281 -1.79803,0.69558 -1.11557,0.35436 -2.71673,0.61685 -1.61429,0.26248 -3.64856,0.26248 -5.57783,0 -8.13707,-3.32045 -2.55923,-3.30732 -2.55923,-9.67261 v -26.18298 h -8.5308 v -6.693389 h 16.60224 v 33.466969 q 0,3.14983 1.24681,4.26539 1.24681,1.11557 3.14983,1.11557 2.428,0 4.06853,-0.65621 1.64054,-0.65622 2.16551,-0.85308 z"
         id="path1-3"
         style="fill:#ff5252;stroke-width:1.31243" /></g><path
       d="m 25.256467,130.12148 q 0,6.64555 2.489444,10.86495 2.468347,4.21939 7.953563,4.21939 1.582274,0 2.953578,-0.10548 1.371303,-0.10549 2.848092,-0.31646 v -27.00413 q -1.476789,-0.84388 -3.375517,-1.4346 -1.898728,-0.56962 -4.008427,-0.56962 -4.641336,0 -6.751034,3.69197 -2.109699,3.69198 -2.109699,10.65398 m 29.219322,23.62862 q -3.586487,1.16034 -8.755248,1.89873 -5.168761,0.7384 -10.126552,0.7384 -11.603341,0 -17.55269,-6.85651 -5.970447,-6.85652 -5.970447,-18.77632 0,-12.13076 5.021083,-19.15606 4.999985,-7.0042 14.810082,-7.0042 2.637123,0 5.168761,0.56962 2.531638,0.59072 4.430366,1.64557 V 84.235539 l 12.974645,-2.215183 z m 23.523136,-23.62862 q 0,6.64555 2.489444,10.86495 2.468344,4.21939 7.953559,4.21939 1.582268,0 2.953578,-0.10548 1.3713,-0.10549 2.84809,-0.31646 v -27.00413 q -1.47679,-0.84388 -3.37552,-1.4346 -1.89873,-0.56962 -4.008423,-0.56962 -4.64133,0 -6.75103,3.69197 -2.109698,3.69198 -2.109698,10.65398 m 29.219315,23.62862 q -3.58648,1.16034 -8.75524,1.89873 -5.168774,0.7384 -10.126562,0.7384 -11.603332,0 -17.552681,-6.85651 -5.970446,-6.85652 -5.970446,-18.77632 0,-12.13076 4.999984,-19.15606 5.021082,-7.0042 14.831178,-7.0042 2.63712,0 5.168753,0.56962 2.53164,0.59072 4.43037,1.64557 V 84.235539 l 12.974644,-2.215183 z"
       id="path1"
       style="fill:#ff5252;fill-opacity:0.664797;stroke-width:2.1097" /></g></svg>
